<svg version="1.1" xmlns="http://www.w3.org/2000/svg" viewBox="0 0 1251 591" width="1251" height="591">
  <!-- svg-source:excalidraw -->
  
  <defs>
    <style class="style-fonts">
      @font-face {
        font-family: "Virgil";
        src: url("https://excalidraw.com/Virgil.woff2");
      }
      @font-face {
        font-family: "Cascadia";
        src: url("https://excalidraw.com/Cascadia.woff2");
      }
    </style>
    
  </defs>
  <rect x="0" y="0" width="1251" height="591" fill="#ffffff"></rect><g stroke-linecap="round" transform="translate(10 258) rotate(0 77.5 25)"><path d="M0 0 C35.28 0, 70.57 0, 155 0 M0 0 C42.38 0, 84.75 0, 155 0 M155 0 C155 10.47, 155 20.93, 155 50 M155 0 C155 19.49, 155 38.98, 155 50 M155 50 C98.79 50, 42.58 50, 0 50 M155 50 C101.62 50, 48.24 50, 0 50 M0 50 C0 36.42, 0 22.84, 0 0 M0 50 C0 35.28, 0 20.56, 0 0" stroke="#1e1e1e" stroke-width="1" fill="none"></path></g><g transform="translate(18.5791015625 271.5) rotate(0 68.9208984375 11.5)"><text x="68.9208984375" y="0" font-family="Helvetica, Segoe UI Emoji" font-size="20px" fill="#1e1e1e" text-anchor="middle" style="white-space: pre;" direction="ltr" dominant-baseline="text-before-edge">nombre archivo</text></g><g stroke-linecap="round" transform="translate(179.5 258) rotate(0 77.5 25)"><path d="M0 0 C32.15 0, 64.3 0, 155 0 M0 0 C43.71 0, 87.42 0, 155 0 M155 0 C155 14.68, 155 29.35, 155 50 M155 0 C155 19.34, 155 38.68, 155 50 M155 50 C111.8 50, 68.59 50, 0 50 M155 50 C115.6 50, 76.2 50, 0 50 M0 50 C0 38.15, 0 26.3, 0 0 M0 50 C0 36.8, 0 23.59, 0 0" stroke="#1e1e1e" stroke-width="1" fill="none"></path></g><g transform="translate(185.84765625 271.5) rotate(0 71.15234375 11.5)"><text x="71.15234375" y="0" font-family="Helvetica, Segoe UI Emoji" font-size="20px" fill="#1e1e1e" text-anchor="middle" style="white-space: pre;" direction="ltr" dominant-baseline="text-before-edge">nombre hospital</text></g><g stroke-linecap="round"><g transform="translate(83 308) rotate(0 40 40)"><path d="M0 0 C16.04 16.04, 32.08 32.08, 80 80 M0 0 C24.46 24.46, 48.91 48.91, 80 80" stroke="#1e1e1e" stroke-width="1" fill="none"></path></g></g><mask></mask><g stroke-linecap="round"><g transform="translate(162 388) rotate(0 42.5 -39.5)"><path d="M0 0 C31.79 -29.55, 63.59 -59.1, 85 -79 M0 0 C31.84 -29.6, 63.69 -59.19, 85 -79" stroke="#1e1e1e" stroke-width="1" fill="none"></path></g></g><mask></mask><g stroke-linecap="round"><g transform="translate(162 388) rotate(0 0 46)"><path d="M0 0 C0 29.64, 0 59.28, 0 92 M0 0 C0 33.79, 0 67.57, 0 92" stroke="#1e1e1e" stroke-width="1" fill="none"></path></g><g transform="translate(162 388) rotate(0 0 46)"><path d="M-10.26 63.81 C-6.95 72.89, -3.65 81.97, 0 92 M-10.26 63.81 C-6.49 74.16, -2.72 84.51, 0 92" stroke="#1e1e1e" stroke-width="1" fill="none"></path></g><g transform="translate(162 388) rotate(0 0 46)"><path d="M10.26 63.81 C6.95 72.89, 3.65 81.97, 0 92 M10.26 63.81 C6.49 74.16, 2.72 84.51, 0 92" stroke="#1e1e1e" stroke-width="1" fill="none"></path></g></g><mask></mask><g stroke-linecap="round" transform="translate(22 488) rotate(0 139.5 46.5)"><path d="M0 0 C86.52 0, 173.05 0, 279 0 M0 0 C76.27 0, 152.54 0, 279 0 M279 0 C279 36.08, 279 72.16, 279 93 M279 0 C279 29.79, 279 59.59, 279 93 M279 93 C186.22 93, 93.44 93, 0 93 M279 93 C208.48 93, 137.96 93, 0 93 M0 93 C0 70.91, 0 48.83, 0 0 M0 93 C0 64.38, 0 35.77, 0 0" stroke="#1e1e1e" stroke-width="1" fill="none"></path></g><g transform="translate(58.66796875 523) rotate(0 102.83203125 11.5)"><text x="102.83203125" y="0" font-family="Helvetica, Segoe UI Emoji" font-size="20px" fill="#1e1e1e" text-anchor="middle" style="white-space: pre;" direction="ltr" dominant-baseline="text-before-edge">crea y carga el hospital</text></g><g transform="translate(547 10) rotate(0 36.1328125 11.5)"><text x="0" y="0" font-family="Helvetica, Segoe UI Emoji" font-size="20px" fill="#1e1e1e" text-anchor="start" style="white-space: pre;" direction="ltr" dominant-baseline="text-before-edge">menu_t </text></g><g stroke-linecap="round" transform="translate(724 259) rotate(0 258.5 45.5)"><path d="M0 0 C162.76 0, 325.52 0, 517 0 M0 0 C131.69 0, 263.38 0, 517 0 M517 0 C517 28.77, 517 57.54, 517 91 M517 0 C517 27.45, 517 54.9, 517 91 M517 91 C342.15 91, 167.3 91, 0 91 M517 91 C330.5 91, 143.99 91, 0 91 M0 91 C0 61.42, 0 31.83, 0 0 M0 91 C0 62.19, 0 33.39, 0 0" stroke="#1e1e1e" stroke-width="1" fill="none"></path></g><g stroke-linecap="round" transform="translate(725 258) rotate(0 43.5 46.5)"><path d="M0 0 C20.82 0, 41.63 0, 87 0 M0 0 C28.41 0, 56.83 0, 87 0 M87 0 C87 35.57, 87 71.13, 87 93 M87 0 C87 19.69, 87 39.38, 87 93 M87 93 C68.35 93, 49.71 93, 0 93 M87 93 C61.77 93, 36.54 93, 0 93 M0 93 C0 56.34, 0 19.69, 0 0 M0 93 C0 57.39, 0 21.79, 0 0" stroke="#1e1e1e" stroke-width="1" fill="none"></path></g><g stroke-linecap="round" transform="translate(812.5 257.5) rotate(0 43.5 46.5)"><path d="M0 0 C20.78 0, 41.56 0, 87 0 M0 0 C27.84 0, 55.68 0, 87 0 M87 0 C87 23.58, 87 47.17, 87 93 M87 0 C87 32.96, 87 65.93, 87 93 M87 93 C54.95 93, 22.9 93, 0 93 M87 93 C68.35 93, 49.69 93, 0 93 M0 93 C0 69.29, 0 45.57, 0 0 M0 93 C0 64.27, 0 35.54, 0 0" stroke="#1e1e1e" stroke-width="1" fill="none"></path></g><g stroke-linecap="round" transform="translate(898.5 259.5) rotate(0 43.5 46.5)"><path d="M0 0 C22.43 0, 44.87 0, 87 0 M0 0 C24.08 0, 48.16 0, 87 0 M87 0 C87 23.87, 87 47.74, 87 93 M87 0 C87 21.04, 87 42.09, 87 93 M87 93 C66.97 93, 46.94 93, 0 93 M87 93 C67.18 93, 47.35 93, 0 93 M0 93 C0 74.03, 0 55.05, 0 0 M0 93 C0 62.86, 0 32.72, 0 0" stroke="#1e1e1e" stroke-width="1" fill="none"></path></g><g stroke-linecap="round" transform="translate(984.5 258.5) rotate(0 43.5 46.5)"><path d="M0 0 C21.31 0, 42.62 0, 87 0 M0 0 C34.07 0, 68.13 0, 87 0 M87 0 C87 36.51, 87 73.03, 87 93 M87 0 C87 33.85, 87 67.7, 87 93 M87 93 C58.13 93, 29.26 93, 0 93 M87 93 C61.09 93, 35.19 93, 0 93 M0 93 C0 56.54, 0 20.08, 0 0 M0 93 C0 63.31, 0 33.63, 0 0" stroke="#1e1e1e" stroke-width="1" fill="none"></path></g><g stroke-linecap="round" transform="translate(1070.5 256.5) rotate(0 43.5 46.5)"><path d="M0 0 C19.53 0, 39.07 0, 87 0 M0 0 C29.54 0, 59.07 0, 87 0 M87 0 C87 22.89, 87 45.78, 87 93 M87 0 C87 20.9, 87 41.81, 87 93 M87 93 C58.05 93, 29.09 93, 0 93 M87 93 C52.84 93, 18.68 93, 0 93 M0 93 C0 63.1, 0 33.21, 0 0 M0 93 C0 63.4, 0 33.81, 0 0" stroke="#1e1e1e" stroke-width="1" fill="none"></path></g><g transform="translate(613 213) rotate(0 81.7236328125 11.5)"><text x="0" y="0" font-family="Helvetica, Segoe UI Emoji" font-size="20px" fill="#1e1e1e" text-anchor="start" style="white-space: pre;" direction="ltr" dominant-baseline="text-before-edge">hash_t *hospitales</text></g><g transform="translate(616 68) rotate(0 117.2998046875 11.5)"><text x="0" y="0" font-family="Helvetica, Segoe UI Emoji" font-size="20px" fill="#1e1e1e" text-anchor="start" style="white-space: pre;" direction="ltr" dominant-baseline="text-before-edge">size_t cantidad_hospitales</text></g><g transform="translate(583 42) rotate(0 17 13)" stroke="none"><path fill="#1e1e1e" d="M 1.18,-1.97 Q 1.18,-1.97 4.00,-0.12 6.82,1.72 9.35,4.72 11.89,7.73 13.93,9.74 15.97,11.75 17.13,12.49 18.29,13.22 19.18,13.84 20.07,14.46 21.79,14.96 23.50,15.46 25.06,16.14 26.63,16.83 28.59,16.90 30.55,16.96 31.54,16.94 32.53,16.93 32.88,17.03 33.24,17.13 33.55,17.31 33.87,17.49 34.13,17.74 34.40,17.99 34.59,18.30 34.79,18.60 34.91,18.95 35.03,19.29 35.06,19.66 35.09,20.02 35.03,20.38 34.97,20.74 34.83,21.08 34.69,21.41 34.47,21.71 34.26,22.00 33.98,22.23 33.69,22.46 33.37,22.62 33.04,22.78 32.68,22.86 32.32,22.93 31.96,22.92 31.59,22.90 30.31,20.62 29.02,18.34 28.42,16.98 27.83,15.62 26.50,14.91 25.17,14.19 23.88,13.11 22.60,12.03 21.83,11.30 21.06,10.56 20.72,10.37 20.37,10.18 20.09,9.91 19.80,9.64 19.59,9.30 19.38,8.97 19.25,8.60 19.12,8.23 19.09,7.84 19.05,7.45 19.11,7.06 19.17,6.67 19.32,6.31 19.47,5.94 19.71,5.63 19.94,5.31 20.24,5.06 20.55,4.81 20.90,4.64 21.25,4.47 21.64,4.38 22.02,4.30 22.42,4.32 22.81,4.33 23.19,4.43 23.57,4.54 25.85,6.45 28.13,8.36 28.97,9.39 29.81,10.42 31.05,12.09 32.28,13.76 33.14,15.01 33.99,16.26 34.50,17.24 35.01,18.21 35.52,21.01 36.04,23.81 34.61,24.94 33.18,26.08 31.42,26.53 29.66,26.98 28.51,27.28 27.35,27.59 26.09,27.80 24.84,28.01 23.26,28.48 21.69,28.95 18.04,27.98 14.39,27.01 14.14,26.54 13.88,26.08 13.79,25.55 13.70,25.02 13.78,24.50 13.86,23.97 14.11,23.50 14.35,23.03 14.74,22.66 15.12,22.29 15.60,22.06 16.09,21.83 16.61,21.77 17.14,21.70 17.67,21.81 18.19,21.92 18.65,22.19 19.10,22.47 19.45,22.87 19.80,23.27 20.00,23.76 20.21,24.26 20.24,24.79 20.27,25.32 20.13,25.84 20.00,26.35 19.70,26.80 19.41,27.24 18.99,27.57 18.56,27.89 18.06,28.07 17.56,28.24 17.02,28.25 16.49,28.25 15.98,28.08 15.48,27.92 15.05,27.60 14.62,27.28 14.32,26.84 14.02,26.40 13.87,25.89 13.72,25.38 13.75,24.85 13.77,24.32 13.96,23.82 14.16,23.32 14.50,22.91 14.84,22.50 15.29,22.22 15.75,21.95 16.27,21.83 16.79,21.71 17.32,21.76 17.85,21.81 18.33,22.03 18.82,22.25 19.21,22.62 19.60,22.98 19.60,22.98 19.60,22.98 20.48,22.71 21.35,22.45 23.22,21.96 25.09,21.48 26.78,21.05 28.47,20.61 29.98,20.79 31.48,20.97 31.43,22.42 31.37,23.88 30.64,23.03 29.91,22.19 29.27,20.77 28.63,19.34 27.73,17.89 26.84,16.44 26.09,15.40 25.34,14.36 24.27,13.21 23.19,12.07 22.12,11.32 21.06,10.56 20.72,10.37 20.37,10.18 20.09,9.91 19.80,9.64 19.59,9.31 19.38,8.97 19.25,8.60 19.12,8.23 19.09,7.84 19.05,7.45 19.11,7.06 19.17,6.67 19.32,6.31 19.47,5.94 19.71,5.63 19.94,5.31 20.24,5.06 20.55,4.81 20.90,4.64 21.25,4.47 21.64,4.38 22.02,4.30 22.41,4.32 22.81,4.33 23.19,4.43 23.56,4.54 23.94,5.08 24.31,5.61 25.62,6.50 26.93,7.39 28.09,8.48 29.26,9.57 30.61,10.35 31.96,11.13 32.67,12.18 33.38,13.24 33.85,14.35 34.32,15.46 34.67,16.79 35.03,18.13 33.78,17.53 32.53,16.93 32.88,17.03 33.23,17.13 33.55,17.31 33.87,17.49 34.13,17.74 34.40,17.99 34.59,18.30 34.79,18.60 34.91,18.95 35.03,19.29 35.06,19.66 35.09,20.02 35.03,20.38 34.97,20.74 34.83,21.08 34.69,21.41 34.47,21.71 34.26,22.00 33.98,22.23 33.69,22.46 33.37,22.62 33.04,22.78 32.68,22.86 32.32,22.93 31.96,22.92 31.59,22.90 30.97,22.83 30.34,22.75 28.52,22.23 26.69,21.71 25.62,21.55 24.55,21.39 23.56,20.79 22.57,20.20 20.88,19.38 19.20,18.57 17.67,17.39 16.14,16.22 14.89,15.23 13.64,14.24 11.37,12.19 9.09,10.14 6.88,7.66 4.67,5.17 1.74,3.57 -1.18,1.97 -1.40,1.80 -1.61,1.63 -1.79,1.41 -1.96,1.19 -2.07,0.94 -2.19,0.69 -2.24,0.41 -2.29,0.14 -2.27,-0.13 -2.26,-0.40 -2.18,-0.67 -2.09,-0.93 -1.95,-1.17 -1.81,-1.41 -1.61,-1.60 -1.42,-1.80 -1.18,-1.94 -0.95,-2.09 -0.68,-2.17 -0.42,-2.25 -0.14,-2.27 0.13,-2.29 0.40,-2.24 0.67,-2.19 0.92,-2.08 1.18,-1.97 1.18,-1.97 L 1.18,-1.97 Z"></path></g><g transform="translate(543 39) rotate(0 26.5 95.5)" stroke="none"><path fill="#1e1e1e" d="M 1.55,0.11 Q 1.55,0.11 1.23,3.85 0.91,7.58 0.47,11.21 0.04,14.84 -0.73,19.28 -1.50,23.72 -2.11,28.15 -2.73,32.59 -3.58,37.38 -4.42,42.18 -4.77,46.73 -5.13,51.28 -5.28,56.37 -5.43,61.46 -5.50,66.50 -5.57,71.54 -5.60,75.99 -5.63,80.43 -5.07,85.11 -4.51,89.80 -3.99,94.41 -3.46,99.03 -2.95,103.28 -2.44,107.54 -1.94,111.06 -1.44,114.58 -0.94,117.20 -0.45,119.82 0.30,121.70 1.05,123.57 2.22,125.79 3.39,128.01 4.76,130.71 6.14,133.41 7.59,136.29 9.03,139.16 10.77,142.06 12.51,144.97 13.86,147.70 15.21,150.44 16.34,152.41 17.46,154.38 18.32,155.78 19.18,157.17 19.89,158.68 20.61,160.18 21.23,161.32 21.85,162.46 22.65,163.72 23.45,164.99 24.32,166.00 25.18,167.01 26.22,167.54 27.25,168.07 28.34,168.61 29.43,169.16 30.47,169.65 31.52,170.14 32.93,170.61 34.34,171.08 36.23,172.00 38.12,172.91 40.04,173.93 41.95,174.95 43.37,175.59 44.80,176.24 46.42,177.51 48.03,178.79 49.53,180.22 51.03,181.65 52.19,182.40 53.34,183.15 54.23,183.77 55.12,184.39 56.26,185.18 57.39,185.96 57.92,186.18 58.44,186.40 58.58,186.66 58.71,186.93 58.77,187.21 58.83,187.50 58.83,187.80 58.82,188.09 58.74,188.37 58.67,188.66 58.52,188.92 58.38,189.17 58.18,189.39 57.98,189.61 57.73,189.77 57.49,189.93 57.21,190.03 56.93,190.13 56.64,190.15 56.35,190.18 56.06,190.14 55.76,190.10 55.49,189.99 55.22,189.88 54.98,189.70 54.74,189.53 54.55,189.31 54.36,189.08 53.52,187.81 52.68,186.53 52.28,184.50 51.87,182.47 51.71,180.88 51.56,179.30 51.27,178.02 50.98,176.74 50.58,175.70 50.18,174.65 49.96,173.42 49.74,172.19 51.39,170.66 53.05,169.12 54.58,169.66 56.11,170.20 57.26,171.35 58.40,172.50 59.34,174.12 60.28,175.73 61.27,177.37 62.26,179.01 62.57,180.48 62.88,181.96 62.69,183.06 62.49,184.16 61.89,185.12 61.28,186.09 59.52,187.12 57.75,188.15 56.78,188.60 55.80,189.05 54.37,189.83 52.93,190.61 51.39,191.23 49.85,191.85 48.75,192.37 47.66,192.88 45.75,193.53 43.84,194.17 43.31,194.22 42.78,194.27 42.26,194.15 41.74,194.03 41.29,193.75 40.84,193.47 40.50,193.06 40.16,192.66 39.97,192.16 39.78,191.66 39.76,191.13 39.74,190.60 39.88,190.09 40.03,189.58 40.33,189.15 40.64,188.71 41.06,188.39 41.49,188.08 42.00,187.91 42.50,187.75 43.03,187.75 43.56,187.76 44.07,187.94 44.57,188.11 44.99,188.44 45.40,188.76 45.70,189.21 45.99,189.65 46.13,190.16 46.26,190.68 46.23,191.21 46.19,191.74 45.99,192.23 45.79,192.72 45.44,193.12 45.09,193.52 44.63,193.79 44.17,194.06 43.65,194.17 43.13,194.28 42.61,194.21 42.08,194.15 41.60,193.92 41.12,193.69 40.74,193.32 40.36,192.95 40.11,192.48 39.87,192.01 39.79,191.48 39.71,190.96 39.80,190.43 39.90,189.91 40.15,189.44 40.40,188.98 40.79,188.62 41.18,188.26 41.67,188.04 42.15,187.82 42.15,187.82 42.15,187.82 44.27,187.25 46.38,186.68 47.73,186.25 49.09,185.81 50.22,185.26 51.35,184.72 52.27,184.12 53.19,183.53 54.25,183.02 55.30,182.51 56.07,181.43 56.84,180.36 56.19,179.40 55.54,178.44 55.01,177.47 54.47,176.50 53.40,175.18 52.33,173.86 53.71,173.36 55.10,172.86 55.56,174.20 56.03,175.54 56.43,177.16 56.82,178.79 56.94,179.97 57.05,181.16 57.39,182.62 57.74,184.08 58.09,185.24 58.44,186.40 58.57,186.66 58.71,186.93 58.77,187.21 58.83,187.50 58.83,187.80 58.82,188.09 58.74,188.37 58.67,188.66 58.52,188.92 58.38,189.17 58.18,189.39 57.98,189.61 57.73,189.77 57.49,189.93 57.21,190.03 56.93,190.13 56.64,190.15 56.35,190.18 56.06,190.14 55.76,190.10 55.49,189.99 55.22,189.88 54.98,189.70 54.74,189.53 54.55,189.31 54.36,189.08 54.18,188.79 54.01,188.50 52.55,187.40 51.09,186.29 49.83,185.32 48.58,184.34 47.12,183.07 45.65,181.80 44.36,180.78 43.07,179.76 41.71,179.05 40.34,178.34 38.40,177.53 36.46,176.72 34.70,176.05 32.94,175.37 31.16,174.79 29.38,174.22 28.33,173.61 27.29,173.00 26.16,172.31 25.04,171.62 23.56,170.59 22.09,169.56 21.12,168.25 20.15,166.94 19.33,165.46 18.52,163.99 18.04,162.72 17.56,161.46 17.05,160.03 16.53,158.60 15.85,157.14 15.17,155.68 14.01,153.64 12.86,151.60 11.56,148.96 10.26,146.32 8.47,143.33 6.68,140.34 5.24,137.47 3.80,134.61 2.43,131.92 1.06,129.23 -0.16,126.88 -1.38,124.54 -2.21,122.43 -3.03,120.32 -3.54,117.64 -4.05,114.95 -4.55,111.40 -5.06,107.85 -5.57,103.59 -6.09,99.33 -6.61,94.72 -7.14,90.11 -7.71,85.26 -8.28,80.41 -8.26,75.96 -8.23,71.51 -8.17,66.45 -8.11,61.38 -7.96,56.23 -7.82,51.07 -7.46,46.39 -7.11,41.71 -6.29,36.96 -5.47,32.22 -4.87,27.73 -4.28,23.25 -3.55,18.88 -2.82,14.51 -2.44,10.93 -2.06,7.36 -1.81,3.62 -1.55,-0.11 -1.52,-0.30 -1.48,-0.48 -1.40,-0.65 -1.32,-0.82 -1.20,-0.97 -1.08,-1.12 -0.93,-1.23 -0.78,-1.34 -0.61,-1.42 -0.44,-1.49 -0.25,-1.52 -0.06,-1.56 0.11,-1.54 0.30,-1.53 0.48,-1.47 0.66,-1.41 0.82,-1.31 0.98,-1.21 1.11,-1.07 1.24,-0.94 1.34,-0.78 1.43,-0.61 1.48,-0.43 1.54,-0.25 1.54,-0.06 1.55,0.11 1.55,0.11 L 1.55,0.11 Z"></path></g><g transform="translate(679 243) rotate(0 19.5 17.5)" stroke="none"><path fill="#1e1e1e" d="M 1.91,-1.04 Q 1.91,-1.04 3.53,2.17 5.16,5.39 6.71,9.14 8.26,12.89 10.24,15.76 12.22,18.62 13.66,20.79 15.10,22.95 16.00,23.68 16.90,24.42 17.86,25.04 18.83,25.67 20.07,25.56 21.31,25.46 23.38,25.73 25.45,26.00 27.81,26.45 30.16,26.89 31.33,27.35 32.50,27.81 33.54,28.37 34.58,28.93 34.12,28.53 33.65,28.13 33.97,28.25 34.29,28.37 34.57,28.57 34.85,28.76 35.08,29.02 35.30,29.28 35.46,29.58 35.62,29.88 35.70,30.22 35.78,30.55 35.78,30.89 35.77,31.23 35.69,31.57 35.61,31.90 35.45,32.20 35.29,32.50 35.06,32.76 34.83,33.01 34.55,33.20 34.27,33.40 33.95,33.52 33.63,33.64 33.29,33.68 32.95,33.72 32.61,33.67 32.27,33.63 31.35,33.05 30.44,32.46 29.76,31.48 29.08,30.50 27.95,29.84 26.83,29.18 25.25,28.27 23.68,27.37 21.94,26.31 20.20,25.26 18.64,23.30 17.09,21.33 17.52,20.26 17.96,19.19 19.04,18.57 20.12,17.95 21.59,18.26 23.06,18.56 24.05,19.01 25.04,19.46 26.41,20.35 27.77,21.24 28.80,21.83 29.83,22.43 30.99,22.95 32.14,23.46 33.33,24.02 34.52,24.58 35.59,25.10 36.67,25.62 38.72,28.04 40.78,30.45 40.10,31.58 39.43,32.71 38.06,33.25 36.70,33.79 35.28,34.73 33.86,35.66 32.61,36.08 31.36,36.50 27.77,37.39 24.17,38.29 23.64,38.23 23.11,38.17 22.62,37.94 22.14,37.72 21.75,37.35 21.37,36.99 21.12,36.51 20.87,36.04 20.78,35.52 20.70,34.99 20.79,34.46 20.87,33.94 21.12,33.47 21.37,33.00 21.76,32.63 22.15,32.26 22.63,32.04 23.12,31.82 23.65,31.76 24.18,31.70 24.70,31.82 25.22,31.94 25.68,32.21 26.13,32.49 26.48,32.89 26.82,33.30 27.02,33.80 27.22,34.29 27.24,34.82 27.27,35.36 27.13,35.87 26.98,36.38 26.68,36.82 26.38,37.27 25.96,37.59 25.53,37.91 25.03,38.08 24.52,38.25 23.99,38.25 23.46,38.25 22.95,38.08 22.45,37.90 22.02,37.58 21.60,37.26 21.30,36.82 21.00,36.37 20.86,35.86 20.72,35.35 20.75,34.81 20.78,34.28 20.98,33.79 21.17,33.29 21.52,32.88 21.87,32.48 22.32,32.20 22.78,31.93 23.30,31.82 23.82,31.70 23.82,31.70 23.82,31.70 24.96,31.70 26.11,31.70 27.51,31.12 28.92,30.54 30.11,30.38 31.29,30.22 32.15,29.46 33.01,28.70 34.46,28.56 35.92,28.42 36.32,29.93 36.71,31.45 35.45,31.16 34.19,30.87 33.15,30.38 32.10,29.88 31.01,29.40 29.91,28.92 28.41,28.35 26.90,27.78 25.74,27.16 24.57,26.55 22.75,25.40 20.94,24.24 21.71,23.00 22.47,21.77 22.21,20.56 21.95,19.36 23.37,20.16 24.79,20.96 25.74,21.46 26.70,21.95 27.64,22.49 28.57,23.03 29.70,23.67 30.82,24.30 31.90,25.14 32.98,25.97 33.31,27.05 33.65,28.13 33.97,28.25 34.29,28.37 34.57,28.57 34.85,28.76 35.08,29.02 35.30,29.28 35.46,29.58 35.62,29.88 35.70,30.22 35.78,30.55 35.78,30.89 35.77,31.23 35.69,31.56 35.61,31.90 35.45,32.20 35.29,32.50 35.06,32.76 34.83,33.01 34.55,33.20 34.27,33.40 33.95,33.52 33.63,33.64 33.29,33.68 32.95,33.72 32.61,33.67 32.27,33.63 31.34,33.27 30.40,32.90 28.64,32.20 26.87,31.49 25.36,31.31 23.85,31.13 22.53,30.82 21.21,30.50 20.12,30.37 19.03,30.23 17.63,29.79 16.24,29.35 15.32,28.12 14.39,26.90 13.46,25.82 12.53,24.74 11.03,22.64 9.52,20.54 7.26,17.43 5.01,14.33 3.37,10.79 1.73,7.25 -0.08,4.15 -1.91,1.04 -2.01,0.80 -2.10,0.55 -2.14,0.29 -2.18,0.03 -2.15,-0.22 -2.12,-0.48 -2.03,-0.73 -1.94,-0.98 -1.80,-1.20 -1.65,-1.42 -1.46,-1.59 -1.26,-1.77 -1.03,-1.90 -0.80,-2.02 -0.55,-2.09 -0.29,-2.16 -0.03,-2.16 0.22,-2.16 0.48,-2.11 0.74,-2.05 0.97,-1.93 1.21,-1.81 1.41,-1.64 1.60,-1.47 1.76,-1.25 1.91,-1.04 1.91,-1.04 L 1.91,-1.04 Z"></path></g><g stroke-linecap="round"><g transform="translate(302 520) rotate(0 40.5 1)"><path d="M0 0 C16.97 0.42, 33.94 0.84, 81 2 M0 0 C29.26 0.72, 58.52 1.45, 81 2" stroke="#1e1e1e" stroke-width="1" fill="none"></path></g></g><mask></mask><g stroke-linecap="round" transform="translate(385 465) rotate(0 83.5 56)"><path d="M167 56 C167 58.09, 166.82 60.19, 166.47 62.27 C166.13 64.35, 165.6 66.42, 164.91 68.46 C164.21 70.5, 163.34 72.52, 162.31 74.5 C161.28 76.47, 160.08 78.41, 158.73 80.3 C157.38 82.18, 155.86 84.02, 154.2 85.79 C152.54 87.56, 150.73 89.28, 148.78 90.92 C146.84 92.55, 144.75 94.12, 142.54 95.6 C140.34 97.08, 138 98.48, 135.56 99.78 C133.12 101.09, 130.56 102.3, 127.92 103.42 C125.29 104.53, 122.54 105.55, 119.73 106.45 C116.92 107.36, 114.02 108.17, 111.08 108.86 C108.14 109.55, 105.12 110.13, 102.08 110.6 C99.04 111.06, 95.95 111.41, 92.85 111.65 C89.75 111.88, 86.62 112, 83.5 112 C80.38 112, 77.25 111.88, 74.15 111.65 C71.05 111.41, 67.96 111.06, 64.92 110.6 C61.88 110.13, 58.86 109.55, 55.92 108.86 C52.98 108.17, 50.08 107.36, 47.27 106.45 C44.46 105.55, 41.71 104.53, 39.08 103.42 C36.44 102.3, 33.88 101.09, 31.44 99.78 C29 98.48, 26.66 97.08, 24.46 95.6 C22.25 94.12, 20.16 92.55, 18.22 90.92 C16.27 89.28, 14.46 87.56, 12.8 85.79 C11.14 84.02, 9.62 82.18, 8.27 80.3 C6.92 78.41, 5.72 76.47, 4.69 74.5 C3.66 72.52, 2.79 70.5, 2.09 68.46 C1.4 66.42, 0.87 64.35, 0.53 62.27 C0.18 60.19, 0 58.09, 0 56 C0 53.91, 0.18 51.81, 0.53 49.73 C0.87 47.65, 1.4 45.58, 2.09 43.54 C2.79 41.5, 3.66 39.48, 4.69 37.5 C5.72 35.53, 6.92 33.59, 8.27 31.7 C9.62 29.82, 11.14 27.98, 12.8 26.21 C14.46 24.44, 16.27 22.72, 18.22 21.08 C20.16 19.45, 22.25 17.88, 24.46 16.4 C26.66 14.92, 29 13.52, 31.44 12.22 C33.88 10.91, 36.44 9.7, 39.08 8.58 C41.71 7.47, 44.46 6.45, 47.27 5.55 C50.08 4.64, 52.98 3.83, 55.92 3.14 C58.86 2.45, 61.88 1.87, 64.92 1.4 C67.96 0.94, 71.05 0.59, 74.15 0.35 C77.25 0.12, 80.38 0, 83.5 0 C86.62 0, 89.75 0.12, 92.85 0.35 C95.95 0.59, 99.04 0.94, 102.08 1.4 C105.12 1.87, 108.14 2.45, 111.08 3.14 C114.02 3.83, 116.92 4.64, 119.73 5.55 C122.54 6.45, 125.29 7.47, 127.92 8.58 C130.56 9.7, 133.12 10.91, 135.56 12.22 C138 13.52, 140.34 14.92, 142.54 16.4 C144.75 17.88, 146.84 19.45, 148.78 21.08 C150.73 22.72, 152.54 24.44, 154.2 26.21 C155.86 27.98, 157.38 29.82, 158.73 31.7 C160.08 33.59, 161.28 35.53, 162.31 37.5 C163.34 39.48, 164.21 41.5, 164.91 43.54 C165.6 45.58, 166.13 47.65, 166.47 49.73 C166.82 51.81, 166.91 54.95, 167 56 C167.09 57.05, 167.09 54.95, 167 56" stroke="#1e1e1e" stroke-width="1" fill="none"></path></g><g transform="translate(418.9790447084233 497.90202025355336) rotate(0 49.4775390625 23)"><text x="49.4775390625" y="0" font-family="Helvetica, Segoe UI Emoji" font-size="20px" fill="#1e1e1e" text-anchor="middle" style="white-space: pre;" direction="ltr" dominant-baseline="text-before-edge">hospital_t* </text><text x="49.4775390625" y="23" font-family="Helvetica, Segoe UI Emoji" font-size="20px" fill="#1e1e1e" text-anchor="middle" style="white-space: pre;" direction="ltr" dominant-baseline="text-before-edge">creado</text></g><g transform="translate(565 507) rotate(0 127.5 -56.5)" stroke="none"><path fill="#1e1e1e" d="M 0,-1.56 Q 0,-1.56 2.58,-1.52 5.17,-1.49 8.86,-1.46 12.54,-1.44 18.35,-1.99 24.17,-2.55 30.94,-3.64 37.70,-4.72 44.90,-6.04 52.09,-7.37 57.47,-8.22 62.85,-9.07 67.70,-9.99 72.55,-10.92 77.45,-12.17 82.36,-13.42 86.76,-14.53 91.16,-15.64 94.99,-16.96 98.82,-18.27 102.77,-19.70 106.71,-21.12 110.12,-22.31 113.53,-23.49 116.40,-24.56 119.27,-25.63 121.82,-27.19 124.38,-28.74 127.26,-30.31 130.15,-31.87 132.78,-33.38 135.42,-34.89 138.29,-36.41 141.16,-37.93 143.85,-39.16 146.53,-40.39 149.68,-41.78 152.83,-43.16 155.24,-44.57 157.66,-45.99 160.20,-47.20 162.74,-48.42 165.01,-49.24 167.28,-50.06 169.33,-50.95 171.38,-51.85 173.06,-52.81 174.75,-53.77 176.98,-54.78 179.21,-55.78 180.94,-56.75 182.68,-57.73 184.49,-59.23 186.31,-60.73 188.66,-62.03 191.02,-63.34 193.14,-64.44 195.26,-65.55 196.93,-66.82 198.59,-68.09 200.55,-69.27 202.51,-70.45 204.14,-71.52 205.78,-72.60 206.95,-73.65 208.13,-74.70 209.54,-75.77 210.95,-76.85 212.02,-77.85 213.09,-78.86 214.02,-80.26 214.95,-81.66 216.72,-83.29 218.49,-84.92 219.71,-86.16 220.94,-87.41 221.69,-88.28 222.44,-89.16 223.11,-90.24 223.78,-91.33 225.10,-92.29 226.42,-93.24 227.11,-94.11 227.80,-94.97 228.81,-96.04 229.82,-97.10 230.75,-98.29 231.68,-99.48 232.73,-100.68 233.78,-101.87 234.91,-102.81 236.03,-103.74 237.03,-104.80 238.03,-105.87 239.70,-107.28 241.36,-108.68 243.20,-110.07 245.04,-111.46 245.91,-112.30 246.78,-113.14 247.00,-113.43 247.21,-113.72 247.49,-113.95 247.77,-114.18 248.09,-114.34 248.42,-114.50 248.77,-114.57 249.12,-114.65 249.48,-114.63 249.84,-114.62 250.19,-114.52 250.54,-114.43 250.85,-114.25 251.16,-114.07 251.42,-113.82 251.69,-113.58 251.88,-113.27 252.08,-112.97 252.19,-112.63 252.31,-112.29 252.34,-111.93 252.37,-111.57 252.32,-111.21 252.26,-110.86 252.12,-110.52 251.98,-110.19 250.10,-109.77 248.21,-109.35 245.80,-108.68 243.39,-108.01 241.43,-107.71 239.48,-107.40 238.06,-106.57 236.64,-105.74 234.93,-104.96 233.22,-104.18 232.16,-103.75 231.11,-103.33 229.60,-102.97 228.10,-102.62 227.56,-102.55 227.03,-102.48 226.72,-102.48 226.42,-102.49 226.12,-102.57 225.82,-102.65 225.55,-102.80 225.28,-102.95 225.05,-103.16 224.82,-103.38 224.65,-103.63 224.48,-103.89 224.38,-104.18 224.28,-104.48 224.25,-104.78 224.22,-105.09 224.26,-105.40 224.31,-105.71 224.43,-105.99 224.54,-106.28 224.72,-106.53 224.91,-106.78 225.14,-106.98 225.38,-107.18 225.66,-107.32 225.93,-107.45 226.24,-107.52 226.54,-107.59 228.11,-107.85 229.69,-108.12 230.97,-108.50 232.25,-108.88 234.04,-109.28 235.82,-109.68 237.26,-109.92 238.70,-110.16 239.84,-110.26 240.98,-110.36 241.82,-111.07 242.67,-111.77 244.46,-112.64 246.25,-113.51 247.77,-114.08 249.29,-114.65 250.33,-115.20 251.38,-115.74 253.30,-115.67 255.23,-115.59 256.27,-114.83 257.32,-114.07 257.65,-112.07 257.98,-110.07 257.65,-108.30 257.33,-106.54 256.81,-104.75 256.29,-102.96 255.75,-101.30 255.21,-99.65 254.58,-97.62 253.95,-95.60 253.05,-93.87 252.15,-92.13 251.79,-89.45 251.43,-86.76 251.32,-86.38 251.22,-86.00 251.01,-85.67 250.79,-85.34 250.48,-85.10 250.17,-84.85 249.79,-84.72 249.42,-84.59 249.03,-84.59 248.63,-84.58 248.26,-84.70 247.88,-84.82 247.56,-85.06 247.24,-85.29 247.02,-85.62 246.79,-85.94 246.68,-86.32 246.57,-86.70 246.59,-87.09 246.60,-87.49 246.75,-87.86 246.89,-88.23 247.14,-88.53 247.39,-88.83 247.73,-89.04 248.06,-89.25 248.45,-89.34 248.83,-89.43 249.22,-89.39 249.62,-89.36 249.98,-89.19 250.34,-89.03 250.63,-88.77 250.92,-88.50 251.11,-88.15 251.30,-87.80 251.37,-87.42 251.44,-87.03 251.38,-86.64 251.32,-86.25 251.14,-85.89 250.96,-85.54 250.67,-85.27 250.39,-84.99 250.03,-84.82 249.68,-84.65 249.29,-84.60 248.89,-84.56 248.51,-84.64 248.12,-84.72 247.78,-84.91 247.44,-85.11 247.18,-85.41 246.92,-85.71 246.77,-86.07 246.62,-86.44 246.59,-86.83 246.56,-87.23 246.56,-87.23 246.56,-87.23 246.90,-89.31 247.23,-91.39 247.69,-92.81 248.14,-94.22 248.81,-95.44 249.47,-96.66 249.80,-98.87 250.12,-101.09 250.49,-102.64 250.86,-104.19 251.13,-105.89 251.39,-107.59 252.07,-108.74 252.75,-109.89 251.34,-109.32 249.92,-108.76 248.91,-108.35 247.91,-107.94 246.88,-107.57 245.86,-107.19 244.79,-106.75 243.72,-106.31 242.70,-105.85 241.67,-105.39 240.55,-105.32 239.43,-105.25 238.26,-105.10 237.08,-104.95 235.42,-104.43 233.76,-103.90 232.36,-103.47 230.96,-103.04 229.00,-102.76 227.03,-102.48 226.72,-102.48 226.42,-102.49 226.12,-102.57 225.82,-102.65 225.55,-102.80 225.28,-102.95 225.05,-103.16 224.82,-103.37 224.65,-103.63 224.48,-103.89 224.38,-104.18 224.28,-104.48 224.25,-104.78 224.22,-105.09 224.26,-105.40 224.31,-105.71 224.43,-105.99 224.54,-106.28 224.72,-106.53 224.91,-106.78 225.14,-106.98 225.38,-107.18 225.66,-107.32 225.93,-107.45 226.24,-107.52 226.54,-107.59 227.56,-107.55 228.58,-107.51 230.02,-107.75 231.46,-107.99 232.92,-108.68 234.39,-109.37 236.37,-110.65 238.36,-111.93 240.36,-112.53 242.36,-113.14 244.26,-113.69 246.17,-114.23 248.14,-114.30 250.11,-114.36 248.45,-113.75 246.78,-113.14 247.00,-113.43 247.21,-113.72 247.49,-113.95 247.77,-114.18 248.09,-114.34 248.42,-114.50 248.77,-114.57 249.12,-114.65 249.48,-114.63 249.84,-114.62 250.19,-114.52 250.53,-114.43 250.85,-114.25 251.16,-114.07 251.42,-113.82 251.69,-113.58 251.88,-113.27 252.07,-112.97 252.19,-112.63 252.31,-112.29 252.34,-111.93 252.37,-111.57 252.32,-111.21 252.26,-110.86 252.12,-110.53 251.98,-110.19 250.89,-109.09 249.80,-107.99 248.14,-106.84 246.48,-105.70 244.81,-104.49 243.13,-103.29 241.74,-102.43 240.34,-101.58 238.80,-100.18 237.25,-98.78 236.31,-97.72 235.36,-96.66 234.30,-95.24 233.23,-93.82 232.25,-92.82 231.26,-91.81 229.33,-90.41 227.41,-89.02 226.26,-87.73 225.12,-86.44 224.22,-85.70 223.33,-84.95 222.04,-83.75 220.75,-82.54 219.31,-81.10 217.86,-79.66 216.65,-77.91 215.43,-76.16 214.16,-75.16 212.88,-74.16 211.47,-73.21 210.07,-72.26 208.67,-71.26 207.27,-70.25 205.57,-69.21 203.87,-68.17 202.04,-67.07 200.20,-65.96 198.35,-64.57 196.51,-63.18 194.41,-62.08 192.32,-60.98 190.18,-59.80 188.03,-58.62 186.03,-56.97 184.02,-55.32 182.18,-54.31 180.33,-53.30 178.20,-52.34 176.07,-51.37 174.25,-50.41 172.43,-49.44 170.30,-48.51 168.17,-47.59 166.02,-46.82 163.87,-46.05 161.43,-44.88 158.98,-43.72 156.43,-42.24 153.88,-40.75 150.76,-39.38 147.63,-38.00 145.01,-36.80 142.39,-35.60 139.56,-34.11 136.73,-32.61 134.06,-31.08 131.40,-29.55 128.57,-28.02 125.74,-26.49 122.97,-24.83 120.20,-23.17 117.30,-22.09 114.40,-21.00 111.00,-19.82 107.60,-18.64 103.65,-17.21 99.69,-15.77 95.75,-14.42 91.81,-13.07 87.42,-11.95 83.02,-10.84 78.04,-9.57 73.05,-8.29 68.17,-7.35 63.28,-6.40 57.93,-5.54 52.59,-4.68 45.37,-3.34 38.15,-1.99 31.29,-0.87 24.44,0.25 18.49,0.84 12.55,1.44 8.86,1.46 5.17,1.49 2.58,1.52 0,1.56 -0.18,1.53 -0.37,1.51 -0.54,1.45 -0.72,1.38 -0.88,1.27 -1.03,1.16 -1.16,1.02 -1.28,0.88 -1.37,0.72 -1.46,0.55 -1.50,0.37 -1.55,0.18 -1.55,-0.00 -1.55,-0.18 -1.50,-0.37 -1.46,-0.55 -1.37,-0.72 -1.28,-0.88 -1.16,-1.02 -1.03,-1.16 -0.88,-1.27 -0.72,-1.38 -0.54,-1.45 -0.37,-1.51 -0.18,-1.53 0.00,-1.56 0.00,-1.56 L 0,-1.56 Z"></path></g><g stroke-linecap="round" transform="translate(857.5 383) rotate(0 83.5 56)"><path d="M167 56 C167 58.09, 166.82 60.19, 166.47 62.27 C166.13 64.35, 165.6 66.42, 164.91 68.46 C164.21 70.5, 163.34 72.52, 162.31 74.5 C161.28 76.47, 160.08 78.41, 158.73 80.3 C157.38 82.18, 155.86 84.02, 154.2 85.79 C152.54 87.56, 150.73 89.28, 148.78 90.92 C146.84 92.55, 144.75 94.12, 142.54 95.6 C140.34 97.08, 138 98.48, 135.56 99.78 C133.12 101.09, 130.56 102.3, 127.92 103.42 C125.29 104.53, 122.54 105.55, 119.73 106.45 C116.92 107.36, 114.02 108.17, 111.08 108.86 C108.14 109.55, 105.12 110.13, 102.08 110.6 C99.04 111.06, 95.95 111.41, 92.85 111.65 C89.75 111.88, 86.62 112, 83.5 112 C80.38 112, 77.25 111.88, 74.15 111.65 C71.05 111.41, 67.96 111.06, 64.92 110.6 C61.88 110.13, 58.86 109.55, 55.92 108.86 C52.98 108.17, 50.08 107.36, 47.27 106.45 C44.46 105.55, 41.71 104.53, 39.08 103.42 C36.44 102.3, 33.88 101.09, 31.44 99.78 C29 98.48, 26.66 97.08, 24.46 95.6 C22.25 94.12, 20.16 92.55, 18.22 90.92 C16.27 89.28, 14.46 87.56, 12.8 85.79 C11.14 84.02, 9.62 82.18, 8.27 80.3 C6.92 78.41, 5.72 76.47, 4.69 74.5 C3.66 72.52, 2.79 70.5, 2.09 68.46 C1.4 66.42, 0.87 64.35, 0.53 62.27 C0.18 60.19, 0 58.09, 0 56 C0 53.91, 0.18 51.81, 0.53 49.73 C0.87 47.65, 1.4 45.58, 2.09 43.54 C2.79 41.5, 3.66 39.48, 4.69 37.5 C5.72 35.53, 6.92 33.59, 8.27 31.7 C9.62 29.82, 11.14 27.98, 12.8 26.21 C14.46 24.44, 16.27 22.72, 18.22 21.08 C20.16 19.45, 22.25 17.88, 24.46 16.4 C26.66 14.92, 29 13.52, 31.44 12.22 C33.88 10.91, 36.44 9.7, 39.08 8.58 C41.71 7.47, 44.46 6.45, 47.27 5.55 C50.08 4.64, 52.98 3.83, 55.92 3.14 C58.86 2.45, 61.88 1.87, 64.92 1.4 C67.96 0.94, 71.05 0.59, 74.15 0.35 C77.25 0.12, 80.38 0, 83.5 0 C86.62 0, 89.75 0.12, 92.85 0.35 C95.95 0.59, 99.04 0.94, 102.08 1.4 C105.12 1.87, 108.14 2.45, 111.08 3.14 C114.02 3.83, 116.92 4.64, 119.73 5.55 C122.54 6.45, 125.29 7.47, 127.92 8.58 C130.56 9.7, 133.12 10.91, 135.56 12.22 C138 13.52, 140.34 14.92, 142.54 16.4 C144.75 17.88, 146.84 19.45, 148.78 21.08 C150.73 22.72, 152.54 24.44, 154.2 26.21 C155.86 27.98, 157.38 29.82, 158.73 31.7 C160.08 33.59, 161.28 35.53, 162.31 37.5 C163.34 39.48, 164.21 41.5, 164.91 43.54 C165.6 45.58, 166.13 47.65, 166.47 49.73 C166.82 51.81, 166.91 54.95, 167 56 C167.09 57.05, 167.09 54.95, 167 56" stroke="#1e1e1e" stroke-width="1" fill="none"></path></g><g transform="translate(891.4790447084233 415.90202025355336) rotate(0 49.4775390625 23)"><text x="49.4775390625" y="0" font-family="Helvetica, Segoe UI Emoji" font-size="20px" fill="#1e1e1e" text-anchor="middle" style="white-space: pre;" direction="ltr" dominant-baseline="text-before-edge">hospital_t* </text><text x="49.4775390625" y="23" font-family="Helvetica, Segoe UI Emoji" font-size="20px" fill="#1e1e1e" text-anchor="middle" style="white-space: pre;" direction="ltr" dominant-baseline="text-before-edge">creado</text></g><g stroke-linecap="round"><g transform="translate(943 352) rotate(0 0 14.5)"><path d="M0 0 C0 8.59, 0 17.17, 0 29 M0 0 C0 8.66, 0 17.32, 0 29" stroke="#1e1e1e" stroke-width="1" fill="none"></path></g><g transform="translate(943 352) rotate(0 0 14.5)"><path d="M-4.96 15.37 C-3.49 19.41, -2.02 23.44, 0 29 M-4.96 15.37 C-3.48 19.44, -2 23.51, 0 29" stroke="#1e1e1e" stroke-width="1" fill="none"></path></g><g transform="translate(943 352) rotate(0 0 14.5)"><path d="M4.96 15.37 C3.49 19.41, 2.02 23.44, 0 29 M4.96 15.37 C3.48 19.44, 2 23.51, 0 29" stroke="#1e1e1e" stroke-width="1" fill="none"></path></g></g><mask></mask><g transform="translate(120 230) rotate(0 57.2607421875 11.5)"><text x="0" y="0" font-family="Helvetica, Segoe UI Emoji" font-size="20px" fill="#1e1e1e" text-anchor="start" style="white-space: pre;" direction="ltr" dominant-baseline="text-before-edge">input usuario</text></g></svg>